
<svg xmlns="http://www.w3.org/2000/svg" viewBox="0 0 48 48" width="48px" height="48px">
  <path fill="#1565C0" d="M18.7,13.767l-0.734,4.172C17.539,19.594,16.21,21,14.436,21H13.5l-0.344,2h2.156C16.715,23,18.295,21.188,18.7,19.016l0.996-5.249H18.7z"/>
  <path fill="#1565C0" d="M27.33,13.767l-0.734,4.172C26.169,19.594,24.84,21,23.066,21h-0.936l-0.344,2h2.156c1.403,0,2.983-1.812,3.388-3.984l0.996-5.249H27.33z"/>
  <path fill="#1565C0" d="M34.5,21c-0.139,0-0.277-0.028-0.432-0.095l-0.335,2.013c0.216,0.056,0.442,0.082,0.691,0.082h2.043c1.539,0,2.861-1.412,2.967-3h-1.764C37.617,20.582,36.818,21,35.766,21H34.5z"/>
  <path fill="#1565C0" d="M35.766,16h-1.689l-0.807,5H34.5c1.052,0,1.851,0.418,1.904,1h1.764c-0.106-1.588-1.428-3-2.967-3h-2.043c-0.249,0-0.474,0.026-0.691,0.082L33.22,21.28c-0.199,0.272-0.522,0.72-1.02,0.72h-0.26l-0.44,2h0.766c1.43,0,2.69-1.868,3.064-4H36c0.6,0,1,0.624,1,1h2c0-1.626-1.246-3-3-3h-1.154C34.898,17.359,35,16.684,35,16.02c0-0.006-0.001-0.012-0.001-0.019h-3.868l-0.768,4.615C30.115,21.493,29.444,22,28.566,22h-0.9l-0.334,2h1.434c1.839,0,3.233-2.086,3.33-2.212L31.5,26h2.5l0.647-4h0.093c0.498,0,0.821,0.447,1.02,0.719c0.155,0.067,0.293,0.095,0.432,0.095h1.266L38,21.813C37.991,18.58,37.963,16,35.766,16z"/>
  <path fill="#FFC107" d="M33,13H17c-3.866,0-7,3.134-7,7v8.226c0.507,0.482,1.064,0.908,1.672,1.281C12.881,30.431,14.366,31,16,31c5,0,5-3,10-3s5,3,10,3c1.634,0,3.119-0.569,4.328-1.493C41.936,28.713,42.493,28.287,43,27.805V20C43,16.134,39.866,13,36,13h-3H33z"/>
  <path fill="#FFECB3" d="M10,28.226V32c0,2.209,1.791,4,4,4h20c2.209,0,4-1.791,4-4v-4.195c-1.356,1.018-3.027,1.627-5,1.627c-4,0-5-3-10-3s-6,3-10,3C11.858,29.432,10.697,28.988,10,28.226z"/>
</svg>
