
<svg xmlns="http://www.w3.org/2000/svg" viewBox="0 0 48 48" width="48px" height="48px">
  <path fill="#1976D2" d="M45,35c0,2.209-1.791,4-4,4H7c-2.209,0-4-1.791-4-4V13c0-2.209,1.791-4,4-4h34c2.209,0,4,1.791,4,4V35z"/>
  <path fill="#FFF" d="M22.255 20l-2.113 4.683L18.039 20h-2.695v6.726L12.341 20h-2.274L7 26.981h1.815l.671-1.558h3.432l.682 1.558h3.465v-5.185l2.299 5.185h1.563l2.351-5.095v5.095H25V20H22.255zM10.135 23.915l1.026-2.44 1.066 2.44H10.135zM37.883 26.981L36.652 25.2l-1.234 1.781h-6.364L26 20h4.8l.963 1.51L32.7 20h2.246l-2.982 4.013L34.788 28h2.253l-1.231-1.78 1.231-1.789 1.194 1.789 3.325.011-3.776-5.011L41 20.011 37.883 26.981z"/>
</svg>
