
<svg xmlns="http://www.w3.org/2000/svg" viewBox="0 0 48 48" width="48px" height="48px">
  <path fill="#FF5F00" d="M24,16c-0.005,2.841,0,5.682,0,8.523c0,2.858,0.001,5.716-0.001,8.573c2.858-0.001,5.716-0.001,8.573,0C32.573,30.238,32.574,27.381,32.572,24.523C32.571,21.665,32.572,18.807,32.573,15.95C30.048,15.949,27.524,15.95,25,15.95C24.666,15.95,24.333,15.974,24,16z"/>
  <path fill="#EB001B" d="M24.048,15.95c-2.525-0.001-5.049,0-7.573,0c-0.044,0.025-0.084,0.059-0.129,0.084c-2.455,1.331-3.983,4.065-3.934,6.882c0.053,2.894,1.742,5.691,4.273,6.924c0.461,0.225,0.944,0.402,1.429,0.566c0.878,0.301,1.809,0.418,2.736,0.416c2.085-0.006,4.169,0.007,6.253-0.006c0.002-2.858,0.002-5.716,0.001-8.573C27.105,19.366,27.105,17.658,24.048,15.95z"/>
  <path fill="#F79E1B" d="M40.66,22.916c-0.064-3.248-2.191-6.299-5.305-7.398c-0.885-0.307-1.816-0.438-2.753-0.437c-2.597,0.005-5.195-0.001-7.792,0.003c3.056,1.708,3.056,3.416,3.056,5.294c0.001,2.858,0,5.716-0.001,8.573c2.18,0.012,4.36,0.001,6.54,0.006c2.535,0.002,4.901-1.5,6.038-3.729C40.974,24.371,40.696,23.621,40.66,22.916z"/>
</svg>
